<?xml version="1.0" encoding="utf-8"?>
<!-- Generator: Adobe Illustrator 28.0.0, SVG Export Plug-In . SVG Version: 6.00 Build 0)  -->
<svg version="1.1" id="Capa_1" xmlns="http://www.w3.org/2000/svg" xmlns:xlink="http://www.w3.org/1999/xlink" x="0px" y="0px"
	 viewBox="0 0 230.49 94.87" style="enable-background:new 0 0 230.49 94.87;" xml:space="preserve">
<g>
	<path d="M120.11,46.34v23.2H107V48.15c0-4.43-1.66-6.62-4.96-6.62c-4.09,0-6.44,2.85-6.44,7.7v20.31H82.5V31.49h9.19l1.8,3.92
		c2.83-3.16,7.06-5.05,11.98-5.05C114.3,30.37,120.11,36.65,120.11,46.34z"/>
	<path d="M125.73,50.51c0-11.79,8.93-20.27,21.33-20.27c12.36,0,21.33,8.48,21.33,20.27c0,11.75-8.97,20.27-21.33,20.27
		C134.65,70.78,125.73,62.27,125.73,50.51z M147.06,59.01c4.78,0,8.2-3.47,8.2-8.5c0-5-3.43-8.5-8.2-8.5s-8.2,3.47-8.2,8.5
		S142.28,59.01,147.06,59.01L147.06,59.01z"/>
	<path d="M197.64,69.54l-9.53-16.09v16.09h-13.1V17.76h13.1V46.4l9.06-14.9h14.71l-11.86,18.13l13.06,19.91H197.64z"/>
</g>
<path d="M46.8,25.45c0,0,0.01,0,0.01,0c6.85,0.01,12.4,5.43,12.4,12.12c0,4.25-2.25,7.98-5.64,10.14c-0.88,0.56-1.2,1.68-0.84,2.66
	l6.02,16.11c0.74,1.74-0.64,3.63-2.65,3.63H36.99c-2.08,0-3.46-2-2.6-3.75l6.7-15.92c0.42-1,0.08-2.18-0.84-2.76
	c-3.89-2.44-6.48-6.86-5.73-11.8C35.41,29.97,40.69,25.45,46.8,25.45 M46.82,18.45L46.82,18.45L46.82,18.45H46.8
	c-9.54,0-17.79,7.04-19.21,16.38c-0.91,5.99,1.32,11.99,5.65,16.19l-5.25,12.49c-1.33,2.91-1.12,6.25,0.59,8.98
	c1.8,2.89,4.95,4.62,8.41,4.62H56.1c3.35,0,6.44-1.64,8.27-4.4c1.73-2.61,2.06-5.88,0.91-8.78l-4.79-12.83
	c3.6-3.53,5.73-8.39,5.73-13.54C66.21,27.04,57.51,18.46,46.82,18.45L46.82,18.45z"/>
</svg>
