<?xml version="1.0" encoding="utf-8"?>
<!-- Generator: Adobe Illustrator 28.0.0, SVG Export Plug-In . SVG Version: 6.00 Build 0)  -->
<svg version="1.1" id="Capa_1" xmlns="http://www.w3.org/2000/svg" xmlns:xlink="http://www.w3.org/1999/xlink" x="0px" y="0px"
	 viewBox="0 0 247 111" style="enable-background:new 0 0 247 111;" xml:space="preserve">
<style type="text/css">
	.st0{fill:#FFFFFF;}
</style>
<g>
	<g>
		<path class="st0" d="M123.5,54.41v23.2h-13.1V56.22c0-4.43-1.66-6.62-4.96-6.62c-4.09,0-6.44,2.85-6.44,7.7V77.6h-13.1V39.56h9.19
			l1.8,3.92c2.83-3.16,7.06-5.05,11.98-5.05C117.69,38.44,123.5,44.71,123.5,54.41z"/>
		<path class="st0" d="M129.12,58.58c0-11.79,8.93-20.27,21.33-20.27c12.36,0,21.33,8.48,21.33,20.27
			c0,11.75-8.97,20.27-21.33,20.27C138.04,78.85,129.12,70.33,129.12,58.58z M150.45,67.08c4.78,0,8.2-3.47,8.2-8.5
			c0-5-3.43-8.5-8.2-8.5s-8.2,3.47-8.2,8.5S145.67,67.08,150.45,67.08L150.45,67.08z"/>
		<path class="st0" d="M201.03,77.6l-9.53-16.09V77.6h-13.1V25.82h13.1v28.64l9.06-14.9h14.71l-11.86,18.13l13.06,19.91H201.03z"/>
	</g>
	<path class="st0" d="M50.19,33.51c0,0,0.01,0,0.01,0c6.85,0.01,12.4,5.43,12.4,12.12c0,4.25-2.25,7.98-5.64,10.14
		c-0.88,0.56-1.2,1.68-0.84,2.66l6.02,16.11c0.74,1.74-0.64,3.63-2.65,3.63H40.38c-2.08,0-3.46-2-2.6-3.75l6.7-15.92
		c0.42-1,0.08-2.18-0.84-2.76c-3.89-2.44-6.48-6.86-5.73-11.8C38.8,38.04,44.08,33.51,50.19,33.51 M50.21,26.51L50.21,26.51
		L50.21,26.51h-0.02c-9.54,0-17.79,7.04-19.21,16.38c-0.91,5.99,1.32,11.99,5.65,16.19l-5.25,12.49c-1.33,2.91-1.12,6.25,0.59,8.98
		c1.8,2.89,4.95,4.62,8.41,4.62h19.11c3.35,0,6.44-1.64,8.27-4.4c1.73-2.61,2.06-5.88,0.91-8.78l-4.79-12.83
		c3.6-3.53,5.73-8.39,5.73-13.54C69.6,35.1,60.9,26.52,50.21,26.51L50.21,26.51z"/>
</g>
</svg>
